<svg height="64" viewBox="0 0 64 64" width="64" xmlns="http://www.w3.org/2000/svg">
    <path d="M62.8 16.9h-0.1c-1.1 0-1.3-0.9-1.3-1.4V8.6c0-0.7-0.6-1.3-1.3-1.3H40.4c-5 0-6.8 1.8-7.3 2.4l-0.1 0.2 0
    0 -0.4 0.5c0 0 0 0 0 0 -0.5 0.7-1 0.4-1.2 0.2l-0.7-0.9L30.3 9.2c-0.6-0.7-2.2-1.9-5.5-1.9H3.8c-0.7 0-1.3 0.6-1.3
    1.3v6.8c0 1.2-0.6 1.4-1 1.5H1.1c-0.3 0-1.1 0.2-1.1 1.6v32.5c0 0.8 0.6 1.4 1.4 1.4h19.2c6.1 0 8.8 2.3 9.6 3.2l0.5
    0.6h0c0 0 1.2 1.4 2.5 0l0 0 0.3-0.3v0l0 0 0.3-0.4c0 0 0.1-0.1 0.2-0.2 1-1 3.6-2.8 8.6-2.8h19.8c0.8 0 1.4-0.6
    1.4-1.4V18.1C63.9 17 63.1 16.9 62.8 16.9zM58.5 45.9c0 0.6-0.5 1.2-1.2 1.2H41c-5.8 0-7.9 2.6-7.9 2.6l-0.3 0.4
    -0.1 0.2c0 0 0 0 0 0 -0.6 0.8-1.4 0-1.4 0l-0.4-0.5c-0.3-0.3-2.4-2.7-7.6-2.7H6.7c-0.7 0-1.2-0.5-1.2-1.2v-34.6c0-0.6
    0.5-1.2 1.2-1.2h13c9.7 0 10.6 5.5 10.7 7.1v24.1c0 1.8 0.8 2.1 1.3 2.1h0.7c0.5 0 1.2-0.3 1.2-1.7v-24.8h0c0.1-2
    0.9-6.8 6.7-6.8h17c0.7 0 1.2 0.5 1.2 1.2V45.9z" fill="#241F20"/>
</svg>